<svg xmlns="http://www.w3.org/2000/svg" xmlns:xlink="http://www.w3.org/1999/xlink" width="500" zoomAndPan="magnify" viewBox="0 0 375 293.999989" height="392" preserveAspectRatio="xMidYMid meet" version="1.0"><path fill="#000000" d="M 3.730469 266.253906 C -0.0078125 257.367188 15.367188 250.878906 21.335938 243.308594 C 25.605469 237.898438 30.585938 233.019531 34.351562 227.246094 C 39.835938 218.84375 43.34375 209.300781 48.132812 200.480469 C 53.25 185.816406 54.542969 174.054688 66.503906 168.355469 C 58.945312 152.695312 67.878906 135.671875 69.566406 119.410156 C 65.800781 102.441406 66.335938 87.148438 76.457031 71.992188 C 74.066406 64.804688 57.480469 62.925781 60.378906 55.929688 C 62.332031 51.21875 72.515625 59.925781 75.691406 55.929688 C 49.304688 40.199219 44.683594 6.582031 62.675781 0.0976562 C 53.664062 30.25 69.613281 32.664062 82.578125 39.867188 C 87.019531 38.9375 91.707031 27.605469 123.917969 36.042969 C 133.609375 36.925781 137.4375 28.628906 155.304688 41.398438 C 167.535156 33.976562 186.628906 49.238281 183.628906 1.625 C 212.285156 49.726562 166.753906 36.230469 172.910156 52.867188 C 174.101562 56.085938 181.050781 56.355469 180.566406 59.753906 C 179.40625 67.878906 161.351562 62.808594 158.367188 70.460938 C 152.085938 86.558594 156.808594 105.863281 177.503906 118.640625 C 196.738281 123.101562 203.9375 136.296875 220.375 148.46875 C 243.203125 148.117188 266.128906 161.0625 278.550781 166.058594 C 356.828125 120.636719 248.242188 146.050781 252.523438 115.582031 C 254.75 101.332031 274.507812 96.546875 283.144531 84.988281 C 289.226562 76.855469 269.675781 61.410156 297.691406 58.222656 C 290.644531 72.566406 310.632812 70.3125 305.324219 95.753906 C 279.128906 108.886719 260.613281 105.429688 266.847656 121.886719 C 289.703125 126.097656 351.550781 126.695312 289.53125 172.21875 C 296.242188 181.832031 310.359375 182.464844 318.359375 201.242188 C 324.890625 209.15625 330.429688 217.84375 335.96875 226.480469 C 342.765625 230.359375 352.035156 233.097656 356.636719 261.660156 C 361.578125 270.277344 375.730469 278.835938 371.179688 287.664062 C 369.066406 291.769531 362.886719 289.570312 357.402344 289.195312 C 352.277344 285.824219 355.023438 276.960938 352.042969 271.601562 C 340.511719 267.742188 342.679688 257.847656 335.96875 253.246094 C 309.160156 245.265625 310.144531 236.703125 296.160156 238.714844 C 296.589844 270.347656 284.101562 255.304688 278.554688 251.71875 C 270.265625 266.40625 261.011719 255.871094 257.882812 248.660156 C 253.035156 248.429688 247.820312 247.554688 243.339844 249.421875 C 239.839844 250.882812 235.296875 253.300781 234.917969 257.070312 C 233.96875 266.507812 254.308594 270.878906 251.761719 280.015625 C 249.089844 289.59375 234.039062 289.996094 224.199219 291.488281 C 216.09375 292.71875 217.847656 293.917969 199.703125 289.195312 C 197.816406 281.28125 221.132812 284.289062 220.375 276.191406 C 219.53125 267.191406 202.679688 271.207031 195.109375 266.25 C 191.792969 264.074219 187.019531 261.789062 186.691406 257.835938 C 186.328125 253.464844 196.097656 251.152344 194.347656 247.128906 C 168.949219 253.394531 160.621094 247.304688 147.648438 241.011719 C 141.933594 242.375 137.890625 247.550781 133.105469 250.953125 C 127.15625 255.179688 121.367188 259.625 115.496094 263.957031 C 110.652344 267.527344 105.460938 270.675781 100.953125 274.664062 C 96.21875 278.847656 94.105469 287.054688 87.9375 288.429688 C 79.105469 290.394531 63.738281 287.464844 62.675781 278.488281 C 61.210938 266.125 85.15625 266.496094 93.296875 257.070312 C 100.75 248.441406 112.53125 237.183594 108.605469 226.480469 C 84.691406 233.132812 78.617188 223.804688 76.453125 212.714844 C 72.226562 213.710938 71.167969 219.648438 68.035156 222.65625 C 56.367188 233.855469 42.542969 236.589844 35.117188 250.953125 C 32.535156 255.941406 33.28125 265.683594 28.992188 269.308594 C 22.515625 274.785156 7.015625 274.0625 3.730469 266.25 Z M 3.730469 266.253906 " fill-opacity="1" fill-rule="nonzero"/></svg>